<svg width="80" height="66" viewBox="0 0 80 66" fill="none" xmlns="http://www.w3.org/2000/svg">
<path d="M73.7555 9.47188H56.8906V6.45413C56.8906 2.89538 53.9957 0 50.4367 0H29.5633C26.0048 0 23.1094 2.89516 23.1094 6.45413V9.47188H6.24471C2.80136 9.47188 0 12.273 0 15.7162V59.634C0 63.0771 2.80136 65.8785 6.24471 65.8785H73.7553C77.1986 65.8785 80 63.0771 80 59.634V15.7162C80.0002 12.2732 77.1991 9.47188 73.7555 9.47188ZM28.5631 6.45413C28.5631 5.90245 29.012 5.45351 29.5635 5.45351H50.4369C50.9884 5.45351 51.4373 5.90245 51.4373 6.45413V9.47188H28.5631V6.45413V6.45413ZM6.24493 14.9254H73.7555C74.1918 14.9254 74.5467 15.2801 74.5467 15.7162V30.0257C66.0964 33.1604 53.3502 35.012 39.9771 35.012C26.6334 35.012 13.9047 33.1668 5.45351 30.0425V15.7162C5.45373 15.2801 5.80865 14.9254 6.24493 14.9254ZM73.7555 60.4249H6.24493C5.80865 60.4249 5.45373 60.0702 5.45373 59.634V35.8202C13.1886 38.3718 23.3581 39.9666 34.4407 40.3663C34.44 40.3979 34.4361 40.4284 34.4361 40.4605V41.6631C34.4361 43.9176 36.2702 45.7517 38.5249 45.7517H41.4757C43.7304 45.7517 45.5645 43.9176 45.5645 41.6631V40.4605C45.5645 40.4284 45.5602 40.397 45.56 40.365C56.6496 39.9618 66.8176 38.3624 74.5471 35.8058V59.6342C74.5467 60.0702 74.1918 60.4249 73.7555 60.4249Z" fill="#2352DE"/>
</svg>
